<?xml version="1.0" standalone="no"?><!-- Generator: Gravit.io -->
<svg xmlns="http://www.w3.org/2000/svg" style="isolation:isolate" viewBox="0 0 700 700" width="700" height="700">
    <path class="icon"
          d=" M 330.619 649.727 C 278.392 645.726 233.001 631.775 190.279 606.592 C 180.286 600.701 164.902 590.17 164.897 589.216 C 164.894 588.766 169.829 586.787 175.863 584.818 C 181.898 582.85 188.105 580.683 189.658 580.004 C 192.44 578.788 192.566 578.824 198.381 582.502 C 233.01 604.406 276.569 619.158 321.148 624.081 C 332.258 625.307 367.725 625.307 378.835 624.081 C 423.414 619.158 466.974 604.406 501.602 582.502 C 507.417 578.824 507.543 578.788 510.325 580.004 C 511.878 580.683 518.085 582.85 524.12 584.818 C 530.154 586.787 535.089 588.766 535.087 589.216 C 535.082 590.17 519.697 600.701 509.704 606.592 C 472.105 628.755 432.408 642.239 388.305 647.829 C 375.836 649.409 341.303 650.546 330.619 649.727 L 330.619 649.727 Z  M 77.455 600.22 C 76.945 599.435 151.293 428.87 152.895 427.15 C 153.265 426.753 156.717 429.149 160.566 432.474 C 179.534 448.857 197.91 459.693 219.337 467.129 C 222.655 468.28 223.427 468.916 223.427 470.501 C 223.427 471.575 225.961 490.97 229.06 513.601 C 232.158 536.231 234.579 555.455 234.441 556.32 C 234.226 557.664 222.937 561.046 157.131 579.484 C 114.749 591.359 79.611 601.079 79.047 601.084 C 78.483 601.088 77.767 600.7 77.455 600.22 Z  M 542.422 579.427 C 476.999 561.043 465.757 557.665 465.542 556.321 C 465.404 555.455 467.825 536.231 470.923 513.601 C 474.022 490.97 476.556 471.612 476.556 470.583 C 476.556 469.554 468.388 450.862 458.404 429.045 C 429.005 364.804 421.398 347.798 421.864 347.355 C 422.632 346.624 429.378 348.88 437.382 352.544 C 474.146 369.373 503.205 406.785 529.163 470.707 C 529.918 472.566 530.139 472.488 544.987 465.122 C 558.578 458.38 561.794 457.275 561.794 459.346 C 561.794 459.711 575.555 491.287 592.374 529.514 C 609.193 567.741 622.765 599.485 622.535 600.055 C 622.305 600.626 621.427 601.062 620.583 601.025 C 619.74 600.989 584.567 591.269 542.422 579.427 L 542.422 579.427 Z  M 96.514 518.549 C 70.835 478.886 56.772 440.903 51.116 395.93 C 49.628 384.098 49.628 347.156 51.116 335.323 C 55.455 300.824 65.507 268.35 80.862 239.226 C 120.297 164.428 191.568 110.218 277.655 89.542 C 290.552 86.444 292.305 86.245 292.305 87.877 C 292.305 89.264 282.657 109.145 281.14 110.883 C 280.535 111.576 279.471 112.143 278.774 112.143 C 275.983 112.143 246.437 122.107 236.341 126.452 C 157.253 160.497 98.696 228.566 80.614 307.48 C 71.58 346.902 71.579 381.833 80.609 421.316 C 85.96 444.715 97.372 472.85 109.529 492.614 L 112.023 496.668 L 106.379 509.295 C 103.276 516.24 100.349 522.032 99.875 522.166 C 99.402 522.301 97.889 520.673 96.514 518.549 L 96.514 518.549 Z  M 599.293 521.719 C 599.026 521.308 596.374 515.503 593.401 508.82 L 587.994 496.668 L 589.997 493.392 C 615.666 451.41 628.921 397.978 625.605 349.861 C 623.053 312.826 613.997 280.179 597.692 249.233 C 585.191 225.507 571.691 206.967 552.435 187.082 C 528.42 162.283 496.932 140.782 463.642 126.452 C 453.546 122.107 424 112.143 421.209 112.143 C 420.512 112.143 419.448 111.576 418.843 110.883 C 417.326 109.145 407.678 89.264 407.678 87.877 C 407.678 86.245 409.431 86.444 422.328 89.542 C 523.483 113.837 604.005 184.87 635.732 277.797 C 645.985 307.827 650 332.54 650 365.627 C 650 388.076 649.199 397.279 645.619 415.996 C 638.583 452.772 625.613 484.329 603.469 518.551 C 600.929 522.477 600.163 523.058 599.293 521.719 Z  M 260.116 466.655 C 222.195 463.475 185.102 446.498 156.373 419.173 C 131.544 395.556 112.727 364.051 102.133 328.362 C 99.263 318.691 96.32 305.638 96.906 305.18 C 98.079 304.262 168.986 269.394 169.664 269.402 C 170.111 269.406 171.594 272.263 172.961 275.749 C 181.949 298.676 198.394 327.18 212.294 343.923 C 217.711 350.448 231.476 363.78 238.019 368.84 C 266.609 390.948 301.909 401.639 341.382 400.144 C 361.703 399.374 376.833 397.016 400.625 390.912 C 406.927 389.295 412.314 388.192 412.596 388.46 C 413.337 389.165 405.889 399.581 398.177 408.625 C 368.734 443.157 329.461 463.338 285.077 466.742 C 272.841 467.68 272.33 467.679 260.116 466.655 L 260.116 466.655 Z  M 113.413 354.57 M 533.91 455.504 C 524.922 432.578 508.477 404.074 494.577 387.33 C 489.16 380.805 475.395 367.473 468.852 362.413 C 440.262 340.305 404.962 329.614 365.489 331.11 C 345.168 331.879 330.038 334.237 306.246 340.342 C 299.944 341.958 294.557 343.062 294.275 342.793 C 293.534 342.089 300.982 331.673 308.694 322.629 C 352.563 271.176 419.052 251.829 483.014 271.905 C 540.516 289.954 585.623 338.493 604.737 402.892 C 607.608 412.562 610.551 425.615 609.965 426.074 C 608.792 426.991 537.885 461.859 537.207 461.852 C 536.76 461.847 535.277 458.99 533.91 455.504 Z  M 257.005 371.913 C 238.886 360.826 220.984 343.746 206.422 323.652 C 203.936 320.221 201.917 316.837 201.935 316.131 C 201.954 315.425 226.459 259.226 256.393 191.243 L 310.817 67.637 L 329.328 58.819 C 339.509 53.968 348.808 50 349.992 50 C 351.175 50 360.474 53.969 370.655 58.82 L 389.166 67.64 L 431.135 162.988 C 454.218 215.43 473.106 258.545 473.108 258.8 C 473.11 259.055 470.691 258.977 467.731 258.625 C 448.115 256.295 421.941 257.051 400.79 260.559 C 394.87 261.54 388.511 262.363 386.658 262.388 L 383.477 262.633 L 366.87 225.781 C 357.839 205.623 350.245 189.13 349.993 189.13 C 349.741 189.13 330.75 231.137 307.79 282.48 C 278.984 346.895 265.645 375.835 264.754 375.847 C 264.044 375.855 260.557 374.086 257.005 371.913 L 257.005 371.913 Z "
          fill="rgb(0,0,0)"/>
</svg>
