<?xml version="1.0" standalone="no"?>
<!DOCTYPE svg PUBLIC "-//W3C//DTD SVG 20010904//EN"
        "http://www.w3.org/TR/2001/REC-SVG-20010904/DTD/svg10.dtd">
<svg version="1.0" xmlns="http://www.w3.org/2000/svg"
     width="700.000000pt" height="700.000000pt" viewBox="0 0 700.000000 700.000000"
     preserveAspectRatio="xMidYMid meet">
    <metadata>
        Created by potrace 1.11, written by Peter Selinger 2001-2013
    </metadata>
    <g transform="translate(0.000000,700.000000) scale(0.100000,-0.100000)"
       fill="#000000" stroke="none">
        <path d="M3476 6491 c-4 -6 -13 -11 -21 -11 -13 0 -83 -31 -278 -123 l-69 -32
-145 -330 c-79 -182 -194 -442 -255 -580 -61 -137 -202 -461 -315 -720 -113
-258 -211 -483 -218 -500 -8 -16 -39 -88 -70 -160 -31 -71 -63 -145 -71 -162
-19 -42 -10 -60 95 -190 141 -176 349 -358 477 -420 l42 -20 20 36 c16 28 174
373 342 746 10 22 33 72 50 110 18 39 48 106 67 150 20 44 52 116 72 160 21
44 95 209 167 367 71 158 131 288 134 288 3 0 13 -17 22 -37 9 -21 80 -176
157 -346 78 -169 141 -312 141 -317 0 -14 32 -28 55 -24 252 43 573 60 778 40
l77 -7 -9 23 c-10 26 -322 742 -350 803 -10 22 -49 110 -86 195 -37 85 -79
182 -94 215 -15 33 -88 197 -161 365 -73 168 -139 310 -146 316 -18 15 -343
161 -375 169 -15 4 -30 2 -33 -4z"/>
        <path d="M2869 6126 c-3 -3 -20 -8 -39 -11 -92 -16 -332 -86 -397 -116 -24
-10 -47 -19 -52 -19 -36 0 -371 -163 -491 -239 -36 -22 -78 -48 -94 -57 -41
-23 -208 -147 -286 -212 -410 -344 -714 -789 -880 -1293 -29 -89 -62 -208 -75
-274 -47 -240 -49 -254 -49 -555 0 -201 4 -319 12 -370 8 -41 16 -88 18 -105
3 -16 10 -50 15 -75 6 -25 12 -52 14 -60 39 -181 124 -418 216 -603 53 -106
186 -332 204 -347 16 -13 19 -9 87 138 l47 103 -51 92 c-101 182 -164 333
-225 537 -41 136 -38 125 -64 270 -30 173 -31 180 -34 395 -3 213 5 309 41
500 94 489 337 948 692 1303 166 166 274 254 464 379 219 143 416 235 719 333
73 24 139 48 146 53 14 10 113 209 113 226 0 11 -42 16 -51 7z"/>
        <path d="M4080 6121 c0 -19 97 -216 113 -229 8 -7 39 -19 70 -27 89 -23 375
-129 470 -174 161 -77 455 -259 537 -333 14 -13 48 -41 75 -63 51 -40 183
-170 265 -260 139 -152 277 -355 382 -560 52 -101 130 -285 121 -285 -3 0 -1
-6 5 -12 16 -21 74 -233 97 -353 48 -262 55 -614 16 -845 -54 -312 -148 -583
-295 -849 l-56 -101 40 -87 c68 -150 75 -163 81 -163 32 -1 237 375 316 580
55 143 78 215 108 345 62 260 70 330 70 605 0 289 -9 397 -51 594 -50 230
-115 417 -225 641 -69 139 -145 273 -179 312 -5 7 -10 15 -10 18 0 17 -180
243 -265 334 -331 352 -704 602 -1151 771 -76 29 -148 56 -159 60 -24 10 -238
67 -280 75 -87 17 -95 17 -95 6z"/>
        <path d="M4208 4355 c-2 -2 -32 -5 -68 -9 -192 -16 -434 -100 -635 -219 -127
-76 -217 -147 -330 -261 -90 -91 -225 -261 -225 -282 0 -9 12 -9 43 -2 23 5
52 12 64 14 12 2 69 15 125 28 101 24 182 37 323 55 160 19 459 3 610 -34 11
-2 39 -9 62 -15 89 -21 245 -88 358 -152 149 -85 339 -257 456 -412 112 -149
249 -392 353 -629 22 -50 28 -57 43 -49 10 6 174 87 366 180 l347 171 -6 43
c-10 68 -69 266 -110 369 -142 363 -379 676 -669 885 -219 158 -463 258 -742
305 -61 10 -357 22 -365 14z"/>
        <path d="M1630 4274 c-25 -13 -183 -91 -352 -174 l-308 -151 5 -36 c5 -42 38
-170 61 -240 245 -748 792 -1231 1508 -1333 75 -11 279 -15 321 -6 11 2 49 7
85 11 349 37 741 245 992 526 71 79 178 218 178 231 0 13 -55 5 -176 -26 -55
-14 -115 -28 -134 -31 -19 -3 -57 -10 -85 -15 -152 -28 -374 -39 -540 -25 -82
7 -95 9 -251 41 -53 10 -212 68 -287 104 -268 127 -500 344 -685 642 -78 126
-152 265 -198 373 -44 104 -62 135 -78 134 -6 0 -31 -11 -56 -25z"/>
        <path d="M4227 3523 c-9 -9 44 -130 273 -628 26 -55 139 -310 253 -569 11 -24
10 -51 -4 -155 -16 -120 -21 -160 -35 -276 -4 -27 -8 -57 -9 -65 -1 -8 -6 -44
-10 -80 -4 -36 -9 -74 -11 -85 -2 -11 -7 -46 -10 -79 -3 -32 -9 -80 -13 -106
l-8 -47 61 -22 c161 -55 1495 -426 1503 -417 4 3 -6 39 -22 78 -23 59 -318
744 -472 1093 -19 44 -41 94 -48 110 -49 115 -60 135 -76 135 -15 0 -64 -21
-229 -98 -35 -17 -67 -29 -70 -27 -4 2 -23 44 -44 92 -269 624 -575 984 -957
1127 -37 14 -69 22 -72 19z"/>
        <path d="M1504 2674 c-14 -33 -37 -84 -51 -114 -127 -275 -659 -1506 -669
-1547 -4 -12 -2 -23 2 -23 5 0 59 14 119 31 61 16 117 32 125 34 236 64 1157
324 1210 342 111 38 102 30 97 92 -7 70 -62 506 -81 641 -3 19 -8 58 -11 85
-9 78 -11 85 -21 95 -6 6 -53 27 -105 49 -52 21 -125 55 -164 76 -69 36 -223
135 -247 158 -11 10 -119 95 -166 130 -9 7 -19 -6 -38 -49z"/>
        <path d="M1815 1171 c-130 -45 -165 -59 -165 -65 0 -6 164 -116 255 -171 82
-50 348 -185 363 -185 4 0 26 -9 48 -19 173 -84 593 -188 878 -218 131 -14
609 -7 701 11 11 2 45 7 75 11 229 32 502 107 720 197 100 42 301 140 360 176
19 12 42 25 50 29 29 13 217 140 238 160 7 6 8 14 3 17 -28 18 -258 92 -271
88 -8 -2 -55 -28 -105 -57 -194 -113 -380 -195 -600 -264 -121 -38 -351 -91
-455 -105 -25 -4 -70 -10 -100 -14 -30 -4 -174 -7 -320 -7 -226 1 -318 5 -400
20 -63 11 -106 19 -110 20 -3 1 -25 5 -50 9 -282 51 -680 205 -930 361 -75 47
-68 46 -185 6z"/>
    </g>
</svg>
